<svg width="233" height="167" viewBox="0 0 233 167" fill="none" xmlns="http://www.w3.org/2000/svg">
<path fill-rule="evenodd" clip-rule="evenodd" d="M79.3776 24.781C111.614 4.20033 154.37 13.6178 174.876 45.8154C181.647 56.4459 185.14 68.2107 185.633 79.9505L186.7 104.754L165.062 84.9439C162.247 82.3665 157.871 82.5642 155.288 85.3855C152.705 88.2068 152.893 92.5832 155.708 95.1606L189.639 126.226C190.991 127.464 192.78 128.113 194.614 128.03C196.447 127.947 198.173 127.139 199.414 125.784L230.547 91.7794C233.13 88.9581 232.942 84.5817 230.127 82.0043C227.312 79.4269 222.936 79.6246 220.353 82.4459L200.521 104.106L199.457 79.3389C198.863 65.2346 194.66 51.0966 186.55 38.3625C161.943 -0.274667 110.635 -11.5756 71.9516 13.1212C68.728 15.1792 67.7771 19.4577 69.8277 22.6775C71.8783 25.8973 76.1539 26.839 79.3776 24.781ZM163.187 143.482C161.136 140.262 156.86 139.321 153.637 141.379C121.4 161.959 78.6442 152.542 58.1381 120.344C51.3678 109.714 47.8745 97.9493 47.3809 86.2096L46.3233 61.4129L67.9543 81.2175C70.7694 83.7949 75.1454 83.5972 77.7285 80.7759C80.3115 77.9546 80.1234 73.5781 77.3084 71.0008L43.3774 39.9348C40.5623 37.3574 36.1862 37.5551 33.6032 40.3764L2.46886 74.382C-0.114184 77.2033 0.0739027 81.5797 2.88898 84.1571C5.70405 86.7345 10.0801 86.5368 12.6632 83.7155L32.5009 62.0483L33.5576 86.8212C34.1506 100.927 38.3535 115.062 46.4643 127.797C71.0717 166.434 122.379 177.735 161.063 153.039C164.286 150.981 165.237 146.702 163.187 143.482Z" fill="white"/>
</svg>
